<?xml version="1.0" standalone="no"?><!DOCTYPE svg PUBLIC "-//W3C//DTD SVG 1.1//EN" "http://www.w3.org/Graphics/SVG/1.1/DTD/svg11.dtd"><svg t="1647926974891" class="icon" viewBox="0 0 1095 1024" version="1.1" xmlns="http://www.w3.org/2000/svg" p-id="2530" xmlns:xlink="http://www.w3.org/1999/xlink" width="213.8671875" height="200"><defs><style type="text/css">@font-face { font-family: feedback-iconfont; src: url("//at.alicdn.com/t/font_1031158_u69w8yhxdu.woff2?t=1630033759944") format("woff2"), url("//at.alicdn.com/t/font_1031158_u69w8yhxdu.woff?t=1630033759944") format("woff"), url("//at.alicdn.com/t/font_1031158_u69w8yhxdu.ttf?t=1630033759944") format("truetype"); }
</style></defs><path d="M1064.192 751.104H313.856a62.38208 62.38208 0 0 1-62.464-62.464c0-34.56 27.904-62.464 62.464-62.464h676.608c15.36 0 28.16-11.008 30.72-26.112l73.728-436.992c1.536-8.96-1.024-18.176-6.912-25.344a31.3344 31.3344 0 0 0-23.808-11.008H276.992L262.656 28.672c-2.304-15.36-15.36-26.624-30.976-26.624H31.232A31.35488 31.35488 0 0 0 0 33.28 31.35488 31.35488 0 0 0 31.232 64.512h173.312l74.24 504.832c-51.712 15.36-89.856 62.72-89.856 119.296 0 68.864 56.064 124.928 124.928 124.928h95.488c-34.816 18.688-58.88 55.296-58.88 97.536 0 61.184 49.92 111.104 111.104 111.104 61.44 0 111.104-49.92 111.104-111.104 0-42.24-24.064-78.592-58.88-97.536h307.712c-34.816 18.688-58.88 55.296-58.88 97.536 0 61.184 49.92 111.104 111.104 111.104 61.44 0 111.104-49.92 111.104-111.104 0-42.24-24.064-78.592-58.88-97.536h138.24a31.35488 31.35488 0 0 0 31.232-31.232c0-17.152-13.824-31.232-31.232-31.232z m-36.864-561.92L964.096 563.712H341.248L286.208 189.184h741.12zM461.568 959.488a48.61952 48.61952 0 0 1-48.64-48.64 48.61952 48.61952 0 0 1 48.64-48.64 48.61952 48.61952 0 0 1 48.64 48.64 48.61952 48.61952 0 0 1-48.64 48.64z m412.16 0a48.61952 48.61952 0 0 1-48.64-48.64 48.61952 48.61952 0 0 1 48.64-48.64 48.61952 48.61952 0 0 1 48.64 48.64 48.61952 48.61952 0 0 1-48.64 48.64z" fill="#2E323F" p-id="2531"></path></svg>