<svg t="1647932760770" class="icon" viewBox="0 0 1024 1024" version="1.1" xmlns="http://www.w3.org/2000/svg" p-id="854" width="200" height="200"><path d="M775.5264 909.4144H253.696c-87.4496 0-158.3104-70.8608-158.3104-158.3104V400.0768c0-87.4496 70.8608-158.3104 158.3104-158.3104h521.8304c87.4496 0 158.3104 70.8608 158.3104 158.3104v351.0784c0 87.3984-70.8608 158.2592-158.3104 158.2592z" fill="#FFAB66" p-id="855"></path><path d="M796.8256 472.6784v317.0816c0 26.0608-8.192 51.7632-24.8832 71.7824-19.7632 23.7056-50.4832 40.3456-97.9968 40.3456 41.9328 0 86.2208 4.7616 122.88 1.7408v1.024c74.752 0 135.3728-60.6208 135.3728-135.3728V472.6784h-135.3728z" fill="#FF8A33" p-id="856"></path><path d="M233.0112 473.4464v317.0816c0 26.0608 8.192 51.7632 24.8832 71.7824 19.7632 23.7056 50.4832 40.3456 97.9968 40.3456-41.9328 0-86.2208 4.7616-122.88 1.7408v1.024c-74.752 0-135.3728-60.6208-135.3728-135.3728V473.4464h135.3728z" fill="#FFC89F" p-id="857"></path><path d="M771.6352 241.7664H257.5872c-89.6 0-162.2528 72.6528-162.2528 162.2528v69.6832h838.4512V403.968c0.0512-89.6-72.5504-162.2016-162.1504-162.2016z" fill="#FFD16C" p-id="858"></path><path d="M235.6736 472.6784V403.9168c0-39.424 7.1168-115.0976 111.9232-149.0944-65.536-13.9264-212.5312-29.3376-239.4624 115.0976 1.4336 53.2992 0 102.7584 0 102.7584h127.5392z" fill="#FFE8C0" p-id="859"></path><path d="M799.3344 472.6784V403.9168c0-39.424-7.5264-115.0976-118.784-149.0944 69.5296-13.9264 225.5872-29.3376 254.1568 115.0976-1.536 53.2992 0 102.7584 0 102.7584h-135.3728z" fill="#FFC50B" p-id="860"></path><path d="M372.5824 474.7776c-2.6112 10.9056-4.0448 22.3232-4.0448 34.048 0 80.0768 64.8704 144.9472 144.9472 144.9472 80.0768 0 144.9472-64.9216 144.9472-144.9472 0-11.7248-1.4336-23.1424-4.0448-34.048H372.5824z" fill="#C9C9F4" p-id="861"></path><path d="M380.8768 474.0096c-1.8944 7.68-2.9696 15.6672-2.9696 23.9616 0 55.9104 45.312 101.2224 101.2224 101.2224s101.2224-45.312 101.2224-101.2224c0-8.2432-1.0752-16.2816-2.9696-23.9616H380.8768z" fill="#E6E6FF" p-id="862"></path><path d="M775.5264 216.1664h-37.9904v-21.8112c0-54.3744-44.2368-98.6112-98.6112-98.6112H373.5552c-54.3744 0-98.6112 44.2368-98.6112 98.6112v21.8112h-21.248c-101.4272 0-183.9104 82.4832-183.9104 183.9104v351.0784c0 101.4272 82.4832 183.9104 183.9104 183.9104h521.8304c101.4272 0 183.9104-82.4832 183.9104-183.9104V400.0256c0-101.376-82.4832-183.8592-183.9104-183.8592zM326.144 194.3552c0-26.1632 21.2992-47.4112 47.4112-47.4112h265.3696c26.1632 0 47.4112 21.2992 47.4112 47.4112v21.8112H326.144v-21.8112z m445.4912 73.0112c75.3152 0 136.6528 61.2864 136.6528 136.6528v44.0832H120.9856V403.968c0-75.3152 61.2864-136.6528 136.6528-136.6528h513.9968zM632.832 508.8256c0 65.792-53.5552 119.3472-119.3472 119.3472-65.792 0-119.3472-53.5552-119.3472-119.3472 0-2.816 0.1024-5.632 0.3072-8.448h238.08c0.2048 2.816 0.3072 5.632 0.3072 8.448z m142.6944 374.9888H253.696c-73.1648 0-132.7104-59.5456-132.7104-132.7104V499.2512h222.2592c-0.2048 3.1744-0.3072 6.3488-0.3072 9.5744 0 94.0544 76.4928 170.5472 170.5472 170.5472 94.0544 0 170.5472-76.4928 170.5472-170.5472 0-3.1744-0.1024-6.3488-0.3072-9.5744h224.512v251.8528c0 73.216-59.5456 132.7104-132.7104 132.7104z" fill="#434A54" p-id="863"></path></svg>